<?xml version="1.0" encoding="UTF-8" standalone="no"?>
<svg
   xmlns:dc="http://purl.org/dc/elements/1.1/"
   xmlns:cc="http://creativecommons.org/ns#"
   xmlns:rdf="http://www.w3.org/1999/02/22-rdf-syntax-ns#"
   xmlns:svg="http://www.w3.org/2000/svg"
   xmlns="http://www.w3.org/2000/svg"
   xmlns:sodipodi="http://sodipodi.sourceforge.net/DTD/sodipodi-0.dtd"
   xmlns:inkscape="http://www.inkscape.org/namespaces/inkscape"
   xml:space="preserve"
   style="enable-background:new 0 0 512 512;"
   viewBox="0 0 512 512"
   y="0px"
   x="0px"
   id="Layer_1"
   version="1.1"
   inkscape:version="0.91 r13725"
   sodipodi:docname="folder_color_blue_publicshare.svg"><sodipodi:namedview
     pagecolor="#ffffff"
     bordercolor="#666666"
     borderopacity="1"
     objecttolerance="10"
     gridtolerance="10"
     guidetolerance="10"
     inkscape:pageopacity="0"
     inkscape:pageshadow="2"
     inkscape:window-width="2560"
     inkscape:window-height="1382"
     id="namedview14"
     showgrid="false"
     inkscape:zoom="2.6074563"
     inkscape:cx="222.58622"
     inkscape:cy="252.73074"
     inkscape:window-x="0"
     inkscape:window-y="27"
     inkscape:window-maximized="1"
     inkscape:current-layer="Layer_1" /><metadata
     id="metadata257"><rdf:RDF><cc:Work
         rdf:about=""><dc:format>image/svg+xml</dc:format><dc:type
           rdf:resource="http://purl.org/dc/dcmitype/StillImage" /><dc:title /></cc:Work></rdf:RDF></metadata><defs
     id="defs255" /><path
     inkscape:connector-curvature="0"
     style="fill:#78d8a5;fill-opacity:1"
     d="m 467.2,117.2 -240.7,0 c -1.6,0 -3,-0.6 -4.1,-1.7 L 182,75.1 c -1.1,-1.1 -2.6,-1.7 -4.1,-1.7 l -133.1,0 C 41.6,73.4 39,76 39,79.2 l 0,354.5 434.1,0 0,-310.7 c -0.1,-3.1 -2.7,-5.8 -5.9,-5.8 z"
     id="path241" /><path
     inkscape:connector-curvature="0"
     style="opacity:0.1"
     d="m 221.3,124.4 -40.4,40.4 c -1,1.1 -2.4,1.7 -3.9,1.7 l -132.6,0 c -3,0 -5.5,2.7 -5.5,6 l 0,260.1 c 0,3.3 2.5,6 5.5,6 l 423.1,0 c 3,0 5.5,-2.7 5.5,-6 l 0,-304 c 0,-3.3 -2.5,-6 -5.5,-6 l -242.3,0 c -1.4,0 -2.8,0.6 -3.9,1.8 z"
     id="path243" /><path
     inkscape:connector-curvature="0"
     style="fill:#d5f5e4;fill-opacity:1"
     d="m 220,130.6 -39.5,39.6 c -1.1,1.1 -2.6,1.7 -4.1,1.7 l -144.6,0 c -3.2,0 -5.8,2.6 -5.8,5.8 l 0,254.9 c 0,3.2 2.6,5.8 5.8,5.8 l 448.3,0 c 3.2,0 5.8,-2.6 5.8,-5.8 l 0,-297.8 c 0,-3.2 -2.6,-5.8 -5.8,-5.8 l -256,0 c -1.5,-0.1 -3,0.6 -4.1,1.6 z"
     id="path245" /><path
     id="path249"
     d="m 304.3,319.4 c -7.6,0 -14.4,3 -19.6,7.8 l -48.6,-24.6 c 0.1,-1 0.3,-1.9 0.3,-2.9 0,-1.2 -0.2,-2.3 -0.3,-3.4 l 49,-23.8 c 5.1,4.6 11.8,7.5 19.3,7.5 15.9,0 28.8,-12.9 28.8,-28.8 0,-15.9 -12.9,-28.8 -28.8,-28.8 -15.9,0 -28.8,12.9 -28.8,28.8 0,1.5 0.2,2.8 0.4,4.2 L 227.5,279 c -5.2,-4.9 -12.1,-8 -19.9,-8 -15.9,0 -28.8,12.9 -28.8,28.8 0,15.9 12.9,28.8 28.8,28.8 7.8,0 14.8,-3.1 19.9,-8.1 l 48.3,24.4 c -0.1,1.1 -0.3,2.3 -0.3,3.4 0,15.9 12.9,28.8 28.8,28.8 15.9,0 28.8,-12.9 28.8,-28.8 0,-15.9 -12.9,-28.9 -28.8,-28.9 z"
     style="fill:#5ac38b;fill-opacity:1"
     inkscape:connector-curvature="0" /><path
     id="path251"
     d="m 304.3,226.4 c -15.1,0 -27.6,11.7 -28.7,26.6 0.1,0.9 0.2,1.7 0.3,2.5 l -0.4,0.2 c 0,1.3 0.2,2.5 0.4,3.7 l -48.5,23.5 c -5.2,-4.9 -12.1,-8 -19.9,-8 -15.2,0 -27.7,11.8 -28.7,26.8 1,15 13.5,26.8 28.7,26.8 7.8,0 14.8,-3.1 19.9,-8.1 l 48.3,24.4 c -0.1,1.1 -0.3,2.3 -0.3,3.4 0,0.1 0,0.2 0,0.3 l 0.3,0.2 c -0.1,0.6 -0.2,1.2 -0.2,1.9 1.2,14.8 13.6,26.4 28.7,26.4 15.2,0 27.7,-11.8 28.7,-26.8 -1,-15 -13.5,-26.8 -28.7,-26.8 -7.6,0 -14.4,3 -19.6,7.8 L 236,306.6 c 0.1,-1 0.3,-1.9 0.3,-2.9 0,-0.3 0,-0.6 0,-0.9 l -0.3,-0.1 c 0,-0.3 0.1,-0.7 0.1,-1 -0.1,-0.4 -0.1,-0.9 -0.2,-1.3 l 0.3,-0.2 c 0,-0.1 0,-0.3 0,-0.4 0,-1.2 -0.2,-2.3 -0.3,-3.4 l 49,-23.8 c 5.1,4.6 11.8,7.5 19.3,7.5 15.2,0 27.7,-11.8 28.7,-26.8 -0.9,-15.1 -13.3,-26.9 -28.6,-26.9 z"
     style="fill:#78d8a5;fill-opacity:1"
     inkscape:connector-curvature="0" /></svg>