<?xml version="1.0" encoding="UTF-8" standalone="no"?>
<svg
   xmlns:dc="http://purl.org/dc/elements/1.1/"
   xmlns:cc="http://creativecommons.org/ns#"
   xmlns:rdf="http://www.w3.org/1999/02/22-rdf-syntax-ns#"
   xmlns:svg="http://www.w3.org/2000/svg"
   xmlns="http://www.w3.org/2000/svg"
   xmlns:sodipodi="http://sodipodi.sourceforge.net/DTD/sodipodi-0.dtd"
   xmlns:inkscape="http://www.inkscape.org/namespaces/inkscape"
   xml:space="preserve"
   style="enable-background:new 0 0 512 512;"
   viewBox="0 0 512 512"
   y="0px"
   x="0px"
   id="Layer_1"
   version="1.1"
   inkscape:version="0.91 r13725"
   sodipodi:docname="folder_color_blue_desktop.svg"><sodipodi:namedview
     pagecolor="#ffffff"
     bordercolor="#666666"
     borderopacity="1"
     objecttolerance="10"
     gridtolerance="10"
     guidetolerance="10"
     inkscape:pageopacity="0"
     inkscape:pageshadow="2"
     inkscape:window-width="2560"
     inkscape:window-height="1382"
     id="namedview17"
     showgrid="false"
     inkscape:zoom="0.921875"
     inkscape:cx="-6.2028519"
     inkscape:cy="244.89936"
     inkscape:window-x="0"
     inkscape:window-y="27"
     inkscape:window-maximized="1"
     inkscape:current-layer="Layer_1" /><metadata
     id="metadata24"><rdf:RDF><cc:Work
         rdf:about=""><dc:format>image/svg+xml</dc:format><dc:type
           rdf:resource="http://purl.org/dc/dcmitype/StillImage" /><dc:title /></cc:Work></rdf:RDF></metadata><defs
     id="defs22"><linearGradient
       id="SVGID_1_"
       gradientUnits="userSpaceOnUse"
       x1="256"
       y1="467.95"
       x2="256"
       y2="44.05"><stop
         offset="0"
         style="stop-color:#318cd4;stop-opacity:1"
         id="stop6" /><stop
         offset="1"
         style="stop-color:#49bb53;stop-opacity:1"
         id="stop8" /></linearGradient></defs><path
     inkscape:connector-curvature="0"
     style="fill:url(#SVGID_1_)"
     d="M 466,468 46,468 C 35,468 26,459 26,448 L 26,64.1 c 0,-11 9,-20 20,-20 l 420,0 c 11,0 20,9 20,20 l 0,383.9 c 0,11 -9,20 -20,20 z"
     id="path10" /><path
     d="m 318.69146,169.39077 c -40.62731,0 -48.24586,57.87714 -25.3902,57.87714 22.85565,0 66.03241,-57.87714 25.3902,-57.87714 z"
     id="path9"
     inkscape:connector-curvature="0" /><path
     d="m 251.22777,220.09663 c 12.16583,0.74546 25.52438,-46.44185 2.65382,-43.47494 -22.87057,2.96691 -14.81965,42.72949 -2.65382,43.47494 z"
     id="path11"
     inkscape:connector-curvature="0" /><path
     d="m 195.45281,249.42284 c 8.66219,-3.81673 1.11819,-41.07458 -13.5971,-30.90657 -14.71528,10.1531 4.94982,34.70839 13.5971,30.90657 z"
     id="path13"
     inkscape:connector-curvature="0" /><path
     d="m 219.84411,229.90682 c 10.30219,-2.10218 10.86873,-44.36949 -7.49928,-36.78076 -18.38293,7.58874 -2.80291,38.88294 7.49928,36.78076 0,0 0,0 0,0 z"
     id="path15"
     inkscape:connector-curvature="0" /><path
     d="m 273.65106,324.49017 c 1.83382,13.95492 -10.24256,20.85784 -22.06547,11.85274 -37.63058,-28.6553 62.30514,-42.93822 55.73022,-82.08952 -5.47164,-32.48694 -105.16881,-22.48293 -116.51464,28.35711 -7.67819,34.3953 31.63712,82.08952 72.65206,82.08952 20.18693,0 43.46004,-18.21892 47.8135,-41.31312 3.32472,-17.59275 -39.15131,-10.54074 -37.61567,1.10327 0,0 0,0 0,0 z"
     id="newshape"
     inkscape:connector-curvature="0" /><path
     inkscape:connector-curvature="0"
     d="m 466,44.2 -420,0 c -11,0 -20,9 -20,20 l 0,45 c 0,-11 9,-20 20,-20 l 420,0 c 11,0 20,9 20,20 l 0,-45 c 0,-11 -9,-20 -20,-20 z"
     id="path18" /></svg>