<?xml version="1.0" encoding="UTF-8" standalone="no"?>
<svg
   xmlns:dc="http://purl.org/dc/elements/1.1/"
   xmlns:cc="http://creativecommons.org/ns#"
   xmlns:rdf="http://www.w3.org/1999/02/22-rdf-syntax-ns#"
   xmlns:svg="http://www.w3.org/2000/svg"
   xmlns="http://www.w3.org/2000/svg"
   xmlns:sodipodi="http://sodipodi.sourceforge.net/DTD/sodipodi-0.dtd"
   xmlns:inkscape="http://www.inkscape.org/namespaces/inkscape"
   xml:space="preserve"
   style="enable-background:new 0 0 512 512;"
   viewBox="0 0 512 512"
   y="0px"
   x="0px"
   id="Layer_1"
   version="1.1"
   inkscape:version="0.91 r13725"
   sodipodi:docname="folder_color_blue_videos.svg"><sodipodi:namedview
     pagecolor="#ffffff"
     bordercolor="#666666"
     borderopacity="1"
     objecttolerance="10"
     gridtolerance="10"
     guidetolerance="10"
     inkscape:pageopacity="0"
     inkscape:pageshadow="2"
     inkscape:window-width="2560"
     inkscape:window-height="1382"
     id="namedview18"
     showgrid="false"
     inkscape:zoom="0.921875"
     inkscape:cx="98.299621"
     inkscape:cy="199.45925"
     inkscape:window-x="0"
     inkscape:window-y="27"
     inkscape:window-maximized="1"
     inkscape:current-layer="Layer_1" /><metadata
     id="metadata337"><rdf:RDF><cc:Work
         rdf:about=""><dc:format>image/svg+xml</dc:format><dc:type
           rdf:resource="http://purl.org/dc/dcmitype/StillImage" /><dc:title /></cc:Work></rdf:RDF></metadata><defs
     id="defs335" /><path
     inkscape:connector-curvature="0"
     style="fill:#78d8a5;fill-opacity:1"
     d="m 467.2,117.2 -240.7,0 c -1.6,0 -3,-0.6 -4.1,-1.7 L 182,75.1 c -1.1,-1.1 -2.6,-1.7 -4.1,-1.7 l -133.1,0 C 41.6,73.4 39,76 39,79.2 l 0,354.5 434.1,0 0,-310.7 c -0.1,-3.1 -2.7,-5.8 -5.9,-5.8 z"
     id="path317" /><path
     inkscape:connector-curvature="0"
     style="opacity:0.1"
     d="m 221.3,124.4 -40.4,40.4 c -1,1.1 -2.4,1.7 -3.9,1.7 l -132.6,0 c -3,0 -5.5,2.7 -5.5,6 l 0,260.1 c 0,3.3 2.5,6 5.5,6 l 423.1,0 c 3,0 5.5,-2.7 5.5,-6 l 0,-304 c 0,-3.3 -2.5,-6 -5.5,-6 l -242.3,0 c -1.4,0 -2.8,0.6 -3.9,1.8 z"
     id="path319" /><path
     inkscape:connector-curvature="0"
     style="fill:#d5f5e4;fill-opacity:1"
     d="m 220,130.6 -39.5,39.6 c -1.1,1.1 -2.6,1.7 -4.1,1.7 l -144.6,0 c -3.2,0 -5.8,2.6 -5.8,5.8 l 0,254.9 c 0,3.2 2.6,5.8 5.8,5.8 l 448.3,0 c 3.2,0 5.8,-2.6 5.8,-5.8 l 0,-297.8 c 0,-3.2 -2.6,-5.8 -5.8,-5.8 l -256,0 c -1.5,-0.1 -3,0.6 -4.1,1.6 z"
     id="path321" /><path
     inkscape:connector-curvature="0"
     id="rect5544"
     style="fill:#5ac38b;fill-opacity:1"
     d="m 331.5,240.7 -100.5,0 c -7,0 -12.6,5.6 -12.6,12.6 l 0,88.3 c 0,7 5.6,12.6 12.6,12.6 l 100.6,0 c 7,0 12.6,-5.6 12.6,-12.6 l 0,-88.3 c -0.1,-6.9 -5.7,-12.6 -12.7,-12.6 z" /><path
     inkscape:connector-curvature="0"
     id="path5546"
     style="fill:#5ac38b;fill-opacity:1"
     d="m 218.3,297.1 -43.8,-43.8 -6.7,0 0,88.3 6.3,0 44.2,-44.5 z" /><path
     inkscape:connector-curvature="0"
     style="fill:#78d8a5;fill-opacity:1"
     d="m 331.5,243.7 -100.5,0 c -7,0 -12.6,5.6 -12.6,12.6 l 0,85.4 c 0,7 5.6,12.6 12.6,12.6 l 100.6,0 c 7,0 12.6,-5.6 12.6,-12.6 l 0,-85.4 c -0.1,-7 -5.7,-12.6 -12.7,-12.6 z"
     id="path329" /><polygon
     style="fill:#78d8a5;fill-opacity:1"
     points="735.6,451.3 728.9,451.3 728.9,536.7 735.2,536.7 777.9,493.6 "
     id="polygon331"
     transform="translate(-561,-195)" /></svg>