<?xml version="1.0" encoding="UTF-8" standalone="no"?>
<svg
   xmlns:dc="http://purl.org/dc/elements/1.1/"
   xmlns:cc="http://creativecommons.org/ns#"
   xmlns:rdf="http://www.w3.org/1999/02/22-rdf-syntax-ns#"
   xmlns:svg="http://www.w3.org/2000/svg"
   xmlns="http://www.w3.org/2000/svg"
   xmlns:sodipodi="http://sodipodi.sourceforge.net/DTD/sodipodi-0.dtd"
   xmlns:inkscape="http://www.inkscape.org/namespaces/inkscape"
   xml:space="preserve"
   style="enable-background:new 0 0 512 512;"
   viewBox="0 0 512 512"
   y="0px"
   x="0px"
   id="Layer_1"
   version="1.1"
   inkscape:version="0.91 r13725"
   sodipodi:docname="folder_color_blue_pictures.svg"><sodipodi:namedview
     pagecolor="#ffffff"
     bordercolor="#666666"
     borderopacity="1"
     objecttolerance="10"
     gridtolerance="10"
     guidetolerance="10"
     inkscape:pageopacity="0"
     inkscape:pageshadow="2"
     inkscape:window-width="2560"
     inkscape:window-height="1382"
     id="namedview16"
     showgrid="false"
     inkscape:zoom="0.921875"
     inkscape:cx="15.636569"
     inkscape:cy="249.00475"
     inkscape:window-x="0"
     inkscape:window-y="27"
     inkscape:window-maximized="1"
     inkscape:current-layer="Layer_1" /><metadata
     id="metadata285"><rdf:RDF><cc:Work
         rdf:about=""><dc:format>image/svg+xml</dc:format><dc:type
           rdf:resource="http://purl.org/dc/dcmitype/StillImage" /><dc:title /></cc:Work></rdf:RDF></metadata><defs
     id="defs283" /><path
     inkscape:connector-curvature="0"
     style="fill:#78d8a5;fill-opacity:1"
     d="m 467.2,117.2 -240.7,0 c -1.6,0 -3,-0.6 -4.1,-1.7 L 182,75.1 c -1.1,-1.1 -2.6,-1.7 -4.1,-1.7 l -133.1,0 C 41.6,73.4 39,76 39,79.2 l 0,354.5 434.1,0 0,-310.7 c -0.1,-3.1 -2.7,-5.8 -5.9,-5.8 z"
     id="path266" /><path
     inkscape:connector-curvature="0"
     style="opacity:0.1"
     d="m 221.3,124.4 -40.4,40.4 c -1,1.1 -2.4,1.7 -3.9,1.7 l -132.6,0 c -3,0 -5.5,2.7 -5.5,6 l 0,260.1 c 0,3.3 2.5,6 5.5,6 l 423.1,0 c 3,0 5.5,-2.7 5.5,-6 l 0,-304 c 0,-3.3 -2.5,-6 -5.5,-6 l -242.3,0 c -1.4,0 -2.8,0.6 -3.9,1.8 z"
     id="path268" /><path
     inkscape:connector-curvature="0"
     style="fill:#d5f5e4;fill-opacity:1"
     d="m 220,130.6 -39.5,39.6 c -1.1,1.1 -2.6,1.7 -4.1,1.7 l -144.6,0 c -3.2,0 -5.8,2.6 -5.8,5.8 l 0,254.9 c 0,3.2 2.6,5.8 5.8,5.8 l 448.3,0 c 3.2,0 5.8,-2.6 5.8,-5.8 l 0,-297.8 c 0,-3.2 -2.6,-5.8 -5.8,-5.8 l -256,0 c -1.5,-0.1 -3,0.6 -4.1,1.6 z"
     id="path270" /><path
     d="m 230.2,222.5 c -7.1,0 -12.9,5.8 -12.9,12.9 l 0,12.9 -38.6,0 c -7.1,0 -12.9,5.8 -12.9,12.9 l 0,103 c 0,7.1 5.8,12.9 12.9,12.9 l 154.6,0 c 7.1,0 12.9,-5.8 12.9,-12.9 l 0,-103 c 0,-7.1 -5.8,-12.9 -12.9,-12.9 l -38.6,0 0,-12.9 c 0,-7.1 -5.8,-12.9 -12.9,-12.9 l -51.6,0 z m 25.8,38.6 c 28.5,0 51.5,23.1 51.5,51.5 0,28.4 -23.1,51.5 -51.5,51.5 -28.4,0 -51.5,-23.1 -51.5,-51.5 0,-28.4 23,-51.5 51.5,-51.5 z m 0,25.8 c -14.2,0 -25.8,11.5 -25.8,25.8 0,14.3 11.5,25.8 25.8,25.8 14.2,0 25.8,-11.5 25.8,-25.8 0,-14.3 -11.6,-25.8 -25.8,-25.8 z"
     style="fill:#5ac38b;fill-opacity:1"
     id="path4975_1_"
     inkscape:connector-curvature="0" /><path
     inkscape:connector-curvature="0"
     style="fill:#78d8a5;fill-opacity:1"
     d="m 256,290.8 c -13.6,0 -24.7,10.5 -25.7,23.8 1,13.3 12.1,23.8 25.7,23.8 13.6,0 24.7,-10.5 25.7,-23.8 -1,-13.3 -12.1,-23.8 -25.7,-23.8 z"
     id="path277" /><path
     inkscape:connector-curvature="0"
     style="fill:#78d8a5;fill-opacity:1"
     d="m 333.3,252.2 -38.6,0 0,-3.9 0,-8.9 c 0,-7.1 -5.8,-12.9 -12.9,-12.9 l -51.5,0 c -7.1,0 -12.9,5.8 -12.9,12.9 l 0,8.9 0,3.9 -38.6,0 c -7.1,0 -12.9,5.8 -12.9,12.9 l 0,99.1 c 0,7.1 5.8,12.9 12.9,12.9 l 154.6,0 c 7.1,0 12.9,-5.8 12.9,-12.9 l 0,-99.2 c -0.1,-7 -5.9,-12.8 -13,-12.8 z m -25.8,64.4 c 0,28.5 -23.1,51.5 -51.5,51.5 -28.4,0 -51.5,-23.1 -51.5,-51.5 0,-0.7 0,-1.3 0,-2 0,-0.7 0,-1.3 0,-2 0,-28.5 23.1,-51.5 51.5,-51.5 28.4,0 51.5,23.1 51.5,51.5 0,0.7 0,1.3 0,2 0,0.6 0,1.3 0,2 z"
     id="path279" /></svg>