<?xml version="1.0" encoding="UTF-8" standalone="no"?>
<svg
   xmlns:dc="http://purl.org/dc/elements/1.1/"
   xmlns:cc="http://creativecommons.org/ns#"
   xmlns:rdf="http://www.w3.org/1999/02/22-rdf-syntax-ns#"
   xmlns:svg="http://www.w3.org/2000/svg"
   xmlns="http://www.w3.org/2000/svg"
   xmlns:sodipodi="http://sodipodi.sourceforge.net/DTD/sodipodi-0.dtd"
   xmlns:inkscape="http://www.inkscape.org/namespaces/inkscape"
   xml:space="preserve"
   style="enable-background:new 0 0 512 512;"
   viewBox="0 0 512 512"
   y="0px"
   x="0px"
   id="Layer_1"
   version="1.1"
   inkscape:version="0.91 r13725"
   sodipodi:docname="folder_color_blue_music.svg"><sodipodi:namedview
     pagecolor="#ffffff"
     bordercolor="#666666"
     borderopacity="1"
     objecttolerance="10"
     gridtolerance="10"
     guidetolerance="10"
     inkscape:pageopacity="0"
     inkscape:pageshadow="2"
     inkscape:window-width="2560"
     inkscape:window-height="1382"
     id="namedview12"
     showgrid="false"
     inkscape:zoom="1.3037281"
     inkscape:cx="95.924699"
     inkscape:cy="302.71933"
     inkscape:window-x="0"
     inkscape:window-y="27"
     inkscape:window-maximized="1"
     inkscape:current-layer="Layer_1" /><metadata
     id="metadata232"><rdf:RDF><cc:Work
         rdf:about=""><dc:format>image/svg+xml</dc:format><dc:type
           rdf:resource="http://purl.org/dc/dcmitype/StillImage" /><dc:title /></cc:Work></rdf:RDF></metadata><defs
     id="defs230" /><path
     id="path218"
     d="m 467.2,117.2 -240.7,0 c -1.6,0 -3,-0.6 -4.1,-1.7 L 182,75.1 c -1.1,-1.1 -2.6,-1.7 -4.1,-1.7 l -133.1,0 C 41.6,73.4 39,76 39,79.2 l 0,354.5 434.1,0 0,-310.7 c -0.1,-3.1 -2.7,-5.8 -5.9,-5.8 z"
     style="fill:#78d8a5;fill-opacity:1"
     inkscape:connector-curvature="0" /><path
     id="path220"
     d="m 221.3,124.4 -40.4,40.4 c -1,1.1 -2.4,1.7 -3.9,1.7 l -132.6,0 c -3,0 -5.5,2.7 -5.5,6 l 0,260.1 c 0,3.3 2.5,6 5.5,6 l 423.1,0 c 3,0 5.5,-2.7 5.5,-6 l 0,-304 c 0,-3.3 -2.5,-6 -5.5,-6 l -242.3,0 c -1.4,0 -2.8,0.6 -3.9,1.8 z"
     style="opacity:0.1"
     inkscape:connector-curvature="0" /><path
     id="path222"
     d="m 220,130.6 -39.5,39.6 c -1.1,1.1 -2.6,1.7 -4.1,1.7 l -144.6,0 c -3.2,0 -5.8,2.6 -5.8,5.8 l 0,254.9 c 0,3.2 2.6,5.8 5.8,5.8 l 448.3,0 c 3.2,0 5.8,-2.6 5.8,-5.8 l 0,-297.8 c 0,-3.2 -2.6,-5.8 -5.8,-5.8 l -256,0 c -1.5,-0.1 -3,0.6 -4.1,1.6 z"
     style="fill:#d5f5e4;fill-opacity:1"
     inkscape:connector-curvature="0" /><path
     inkscape:connector-curvature="0"
     style="fill:#5ac38b;fill-opacity:1"
     d="m 345.2,332.8 0,-86.5 0,-23.8 -23.8,0 -71.4,0 -23.8,0 0,23.8 0,51.7 c -5.4,-2.5 -11.5,-4 -17.8,-4 -22.9,0 -41.7,18.4 -41.7,41.3 0,22.9 18.8,41.7 41.7,41.7 22.9,0 41.7,-18.8 41.7,-41.7 0,-0.9 0,-1.7 -0.1,-2.5 l 0,-86.5 71.4,0 0,51.7 c -5.4,-2.5 -11.5,-4 -17.8,-4 -22.9,0 -41.7,18.4 -41.7,41.3 0,22.9 18.8,41.7 41.7,41.7 22.9,0 41.7,-18.8 41.7,-41.7 0,-0.8 0,-1.7 -0.1,-2.5 z m -136.8,20.5 c -10,0 -18,-8 -18,-18 0,-10 8,-17.6 18,-17.6 9.2,0 16.6,6.4 17.8,15.2 l 0,2.7 0.2,0 c -0.2,9.9 -8.1,17.7 -18,17.7 z m 95.2,0 c -10,0 -18,-8 -18,-18 0,-10 8,-17.6 18,-17.6 9.2,0 16.6,6.4 17.8,15.2 l 0,3.3 0.1,0 c -0.4,9.6 -8.2,17.1 -17.9,17.1 z"
     id="path224" /><path
     inkscape:connector-curvature="0"
     style="fill:#78d8a5;fill-opacity:1"
     d="m 208.4,298 c -22.2,0 -40.6,17.4 -41.6,39.3 1,22 19.4,39.7 41.6,39.7 22.1,0 40.5,-17.6 41.6,-39.5 0,-0.3 0,-0.5 0,-0.8 l 0,-3.9 0,-82.6 0,-3.9 71.4,0 0,3.9 0,47.8 0,3.9 c -5.4,-2.5 -11.5,-4 -17.8,-4 -22.2,0 -40.6,17.4 -41.6,39.3 1,22 19.4,39.7 41.6,39.7 22.1,0 40.5,-17.6 41.6,-39.5 0,-0.3 0,-0.5 0,-0.8 l 0,-3.9 0,-82.6 0,-3.9 0,-19.9 -23.8,0 -71.4,0 -23.8,0 0,19.9 0,3.9 0,47.9 0,3.9 c -5.4,-2.5 -11.4,-3.9 -17.8,-3.9 z m 113.1,38.3 c 0,0.4 -0.1,0.9 -0.1,1.3 l 0,2.6 0.1,0 c -0.5,9.6 -8.2,17.1 -17.9,17.1 -10,0 -18,-8 -18,-18 0,-0.7 0,-1.3 0.1,-2 -0.1,-0.6 -0.1,-1.3 -0.1,-2 0,-10 8,-17.6 18,-17.6 9.2,0 16.6,6.4 17.8,15.2 l 0,3.3 0.1,0 z m -95.1,-0.6 c 0,0.7 -0.1,1.3 -0.2,2 l 0,1.9 0.2,0 c -0.2,9.8 -8.1,17.6 -18,17.6 -10,0 -18,-8 -18,-18 0,-0.7 0,-1.3 0.1,-2 -0.1,-0.6 -0.1,-1.3 -0.1,-2 0,-10 8,-17.6 18,-17.6 9.2,0 16.6,6.4 17.8,15.2 l 0,2.7 0.2,0 z"
     id="path226" /></svg>