<?xml version="1.0" encoding="UTF-8" standalone="no"?>
<svg
   xmlns:dc="http://purl.org/dc/elements/1.1/"
   xmlns:cc="http://creativecommons.org/ns#"
   xmlns:rdf="http://www.w3.org/1999/02/22-rdf-syntax-ns#"
   xmlns:svg="http://www.w3.org/2000/svg"
   xmlns="http://www.w3.org/2000/svg"
   xmlns:sodipodi="http://sodipodi.sourceforge.net/DTD/sodipodi-0.dtd"
   xmlns:inkscape="http://www.inkscape.org/namespaces/inkscape"
   xml:space="preserve"
   style="enable-background:new 0 0 512 512;"
   viewBox="0 0 512 512"
   y="0px"
   x="0px"
   id="Layer_1"
   version="1.1"
   inkscape:version="0.91 r13725"
   sodipodi:docname="folder_color_blue_templates.svg"><sodipodi:namedview
     pagecolor="#ffffff"
     bordercolor="#666666"
     borderopacity="1"
     objecttolerance="10"
     gridtolerance="10"
     guidetolerance="10"
     inkscape:pageopacity="0"
     inkscape:pageshadow="2"
     inkscape:window-width="2560"
     inkscape:window-height="1382"
     id="namedview38"
     showgrid="false"
     inkscape:zoom="1.84375"
     inkscape:cx="50.037923"
     inkscape:cy="308.98398"
     inkscape:window-x="0"
     inkscape:window-y="27"
     inkscape:window-maximized="1"
     inkscape:current-layer="Layer_1" /><metadata
     id="metadata101"><rdf:RDF><cc:Work
         rdf:about=""><dc:format>image/svg+xml</dc:format><dc:type
           rdf:resource="http://purl.org/dc/dcmitype/StillImage" /><dc:title /></cc:Work></rdf:RDF></metadata><defs
     id="defs99" /><path
     id="path35"
     d="m 467.2,117.2 -240.7,0 c -1.6,0 -3,-0.6 -4.1,-1.7 L 182,75.1 c -1.1,-1.1 -2.6,-1.7 -4.1,-1.7 l -133.1,0 C 41.6,73.4 39,76 39,79.2 l 0,354.5 434.1,0 0,-310.7 c -0.1,-3.1 -2.7,-5.8 -5.9,-5.8 z"
     style="fill:#78d8a5;fill-opacity:1"
     inkscape:connector-curvature="0" /><path
     id="path37"
     d="m 221.3,124.4 -40.4,40.4 c -1,1.1 -2.4,1.7 -3.9,1.7 l -132.6,0 c -3,0 -5.5,2.7 -5.5,6 l 0,260.1 c 0,3.3 2.5,6 5.5,6 l 423.1,0 c 3,0 5.5,-2.7 5.5,-6 l 0,-304 c 0,-3.3 -2.5,-6 -5.5,-6 l -242.3,0 c -1.4,0 -2.8,0.6 -3.9,1.8 z"
     style="opacity:0.1"
     inkscape:connector-curvature="0" /><path
     id="path39"
     d="m 220,130.6 -39.5,39.6 c -1.1,1.1 -2.6,1.7 -4.1,1.7 l -144.6,0 c -3.2,0 -5.8,2.6 -5.8,5.8 l 0,254.9 c 0,3.2 2.6,5.8 5.8,5.8 l 448.3,0 c 3.2,0 5.8,-2.6 5.8,-5.8 l 0,-297.8 c 0,-3.2 -2.6,-5.8 -5.8,-5.8 l -256,0 c -1.5,-0.1 -3,0.6 -4.1,1.6 z"
     style="fill:#d5f5e4;fill-opacity:1"
     inkscape:connector-curvature="0" /><rect
     id="rect43"
     height="10.3"
     width="10.3"
     style="fill:#5ac38b;fill-opacity:1"
     y="324"
     x="204.5" /><rect
     id="rect45"
     height="10.3"
     width="10.3"
     style="fill:#5ac38b;fill-opacity:1"
     y="334.29999"
     x="194.2" /><rect
     id="rect47"
     height="10.3"
     width="10.3"
     style="fill:#5ac38b;fill-opacity:1"
     y="344.60001"
     x="204.5" /><rect
     id="rect49"
     height="10.3"
     width="10.3"
     style="fill:#5ac38b;fill-opacity:1"
     y="354.89999"
     x="194.2" /><rect
     id="rect51"
     height="10.3"
     width="10.3"
     style="fill:#5ac38b;fill-opacity:1"
     y="354.89999"
     x="214.8" /><rect
     id="rect53"
     height="10.3"
     width="10.3"
     style="fill:#5ac38b;fill-opacity:1"
     y="354.89999"
     x="235.39999" /><rect
     id="rect55"
     height="10.3"
     width="10.3"
     style="fill:#5ac38b;fill-opacity:1"
     y="354.89999"
     x="256" /><rect
     id="rect57"
     height="10.3"
     width="10.3"
     style="fill:#5ac38b;fill-opacity:1"
     y="354.89999"
     x="276.60001" /><path
     id="path59"
     d="m 317.8,268 c 0.1,-2.7 -1,-5.5 -2.9,-7.4 l -36.7,-36.7 c -2,-1.9 -4.7,-3 -7.4,-2.9 l -66.3,0 c -0.3,0 -0.6,0 -1,0 -0.3,0 -0.6,0 -1,0 l 0,0 c -4.7,0.9 -8.5,5.5 -8.4,10.3 l 0,82.4 0,10.3 10.3,0 0,-10.3 10.3,0 0,-10.3 0,-61.8 51.5,0 0,30.9 30.9,0 0,80.5 0,1.9 0,10.3 -10.3,0 0,10.3 10.3,0 0,-10.3 10.3,0 0,-10.3 10.3,0 0,-86.9 z"
     style="fill:#5ac38b;fill-opacity:1"
     inkscape:connector-curvature="0" /><rect
     id="rect61"
     height="10.3"
     width="10.3"
     style="fill:#5ac38b;fill-opacity:1"
     y="365.20001"
     x="204.5" /><rect
     id="rect63"
     height="10.3"
     width="10.3"
     style="fill:#5ac38b;fill-opacity:1"
     y="365.20001"
     x="225.10001" /><rect
     id="rect65"
     height="10.3"
     width="10.3"
     style="fill:#5ac38b;fill-opacity:1"
     y="365.20001"
     x="245.7" /><rect
     id="rect67"
     height="10.3"
     width="10.3"
     style="fill:#5ac38b;fill-opacity:1"
     y="365.20001"
     x="266.29999" /><rect
     id="rect71"
     height="7"
     width="10.3"
     style="fill:#78d8a5;fill-opacity:1"
     y="327.29999"
     x="204.5" /><rect
     id="rect73"
     height="7"
     width="10.3"
     style="fill:#78d8a5;fill-opacity:1"
     y="337.60001"
     x="194.2" /><polygon
     id="polygon75"
     points="214.8,358.2 214.8,354.9 214.8,347.9 204.5,347.9 204.5,354.9 204.5,358.2 "
     style="fill:#78d8a5;fill-opacity:1" /><rect
     id="rect77"
     height="7"
     width="10.3"
     style="fill:#78d8a5;fill-opacity:1"
     y="358.20001"
     x="194.2" /><rect
     id="rect79"
     height="7"
     width="10.3"
     style="fill:#78d8a5;fill-opacity:1"
     y="358.20001"
     x="214.8" /><rect
     id="rect81"
     height="7"
     width="10.3"
     style="fill:#78d8a5;fill-opacity:1"
     y="358.20001"
     x="235.39999" /><rect
     id="rect83"
     height="7"
     width="10.3"
     style="fill:#78d8a5;fill-opacity:1"
     y="358.20001"
     x="256" /><rect
     id="rect85"
     height="7"
     width="10.3"
     style="fill:#78d8a5;fill-opacity:1"
     y="358.20001"
     x="276.60001" /><path
     id="path87"
     d="m 314.9,263.9 -36.7,-36.7 c -2,-1.9 -4.7,-3 -7.4,-2.9 l -66.3,0 c -0.3,0 -0.6,0 -1,0 -0.3,0 -0.6,0 -1,0 l 0,0 c -4.7,0.9 -8.5,5.5 -8.4,10.3 l 0,79.1 0,3.3 0,7 10.3,0 0,-7 0,-3.3 10.3,0 0,-7 0,-3.3 0,-58.5 0,-3.3 51.5,0 0,3.3 0,27.6 30.9,0 0,3.3 0,77.2 0,1.9 0,1.4 0,1.9 0,7 0,3.3 -10.3,0 0,7 10.3,0 0,-7 0,-3.3 10.3,0 0,-7 0,-1.9 0,-1.4 10.3,0 0,-83.6 c 0.2,-2.7 -0.9,-5.4 -2.8,-7.4 z"
     style="fill:#78d8a5;fill-opacity:1"
     inkscape:connector-curvature="0" /><rect
     id="rect89"
     height="7"
     width="10.3"
     style="fill:#78d8a5;fill-opacity:1"
     y="368.60001"
     x="204.5" /><rect
     id="rect91"
     height="7"
     width="10.3"
     style="fill:#78d8a5;fill-opacity:1"
     y="368.60001"
     x="225.10001" /><rect
     id="rect93"
     height="7"
     width="10.3"
     style="fill:#78d8a5;fill-opacity:1"
     y="368.60001"
     x="245.7" /><rect
     id="rect95"
     height="7"
     width="10.3"
     style="fill:#78d8a5;fill-opacity:1"
     y="368.60001"
     x="266.29999" /></svg>